<svg width="34" height="38" viewBox="0 0 34 38" fill="none" xmlns="http://www.w3.org/2000/svg">
<path d="M33.4123 18.8182C33.4123 20.5325 31.9452 21.9224 30.135 21.9224C28.3251 21.9224 26.8577 20.5325 26.8577 18.8182C26.8577 17.1037 28.3251 15.7138 30.135 15.7138C31.9452 15.7138 33.4123 17.1037 33.4123 18.8182V18.8182Z" fill="#E2B195"/>
<path d="M21.6074 37.4434H12.3929L9.59526 34.5106C10.7896 31.3107 13.6809 30.1621 13.6809 30.1621H20.3191C20.3191 30.1621 23.2104 31.3107 24.4047 34.5106L21.6074 37.4434Z" fill="#FD747F"/>
<path d="M19.586 30.5558C19.586 31.9088 18.4284 33.0053 17.0002 33.0053C15.5719 33.0053 14.414 31.9088 14.414 30.5558C14.414 29.203 15.5719 28.1066 17.0002 28.1066C18.4284 28.1066 19.586 29.203 19.586 30.5558V30.5558Z" fill="#E2B195"/>
<path d="M24.9125 37.4434H21.6074V34.5106H24.4047C24.7166 35.3438 24.9125 36.3156 24.9125 37.4434Z" fill="#FAC5AA"/>
<path d="M12.3929 34.5106V37.4434H9.08746C9.08746 36.3156 9.28336 35.3438 9.59526 34.5106H12.3929Z" fill="#FAC5AA"/>
<path d="M29.6413 16.5983C29.795 17.3225 29.8767 18.0702 29.8767 18.835C29.8767 25.3083 24.1115 30.5558 17.0002 30.5558C9.8885 30.5558 4.12363 25.3083 4.12363 18.835C4.12363 18.0702 4.20505 17.3228 4.3587 16.5989L5.59193 13.8496L10.4866 9.9198L17.0002 8.81435L24.4926 10.4904L28.9728 14.5915L29.6413 16.5983Z" fill="#FAC5AA"/>
<path d="M6.47439 18.835C6.47439 18.8275 6.47439 18.82 6.47439 18.8121C6.47683 17.6693 6.73578 16.5401 7.20747 15.4882L7.94269 13.8493L12.837 9.9198L18.0142 9.04106L17.0002 8.81435L10.4866 9.9198L5.59193 13.8493L4.70213 15.8332C4.45481 15.7561 4.17689 15.7138 3.86498 15.7138C2.05508 15.7138 0.587692 17.1037 0.587692 18.8182C0.587692 20.5325 2.05508 21.9224 3.86498 21.9224C4.11567 21.9224 4.34401 21.8948 4.55276 21.8441C6.01219 26.8594 11.0314 30.5558 17.0002 30.5558C17.3965 30.5558 17.7883 30.5387 18.1755 30.5068C11.6148 29.9664 6.47439 24.9476 6.47439 18.835V18.835Z" fill="#E2B195"/>
<path d="M24.9125 1.99869L24.9135 1.99782C23.1675 1.26462 20.5612 0.556641 17.0002 0.556641C13.4391 0.556641 10.8328 1.26462 9.08685 1.99782L9.08746 1.99869L6.93749 5.50407L5.98801 10.6776L8.09971 12.6581H25.9003L27.9532 10.626L27.0625 5.24953L24.9125 1.99869Z" fill="#EAEAEA"/>
<path d="M7.97544 11.6349C8.02533 11.993 8.06665 12.3336 8.09971 12.6581H3.7352C3.7352 12.6581 3.44319 9.56001 5.8215 4.60707C6.1839 3.85184 6.77465 3.21373 7.51906 2.77711C7.93075 2.53561 8.45141 2.2657 9.08685 1.99811L9.08746 1.99869C9.08746 1.99869 7.32317 6.9496 7.97544 11.6349Z" fill="#F26365"/>
<path d="M30.2648 12.6581H25.9003C25.9336 12.3334 25.975 11.993 26.0249 11.6349C26.6771 6.9496 24.9125 1.99869 24.9125 1.99869L24.9135 1.99782C25.5486 2.26541 26.0696 2.53532 26.4812 2.77711C27.2253 3.21373 27.8161 3.85155 28.1788 4.60678C30.5568 9.56001 30.2648 12.6581 30.2648 12.6581Z" fill="#F26365"/>
<path d="M24.0442 21.8302H22.3968C22.0723 21.8302 21.8091 21.5808 21.8091 21.2735C21.8091 20.9659 22.0723 20.7169 22.3968 20.7169H24.0442C24.3689 20.7169 24.6319 20.9659 24.6319 21.2735C24.6319 21.5808 24.3689 21.8302 24.0442 21.8302Z" fill="#FD747F"/>
<path d="M11.6032 21.8302H9.95614C9.63138 21.8302 9.36845 21.5808 9.36845 21.2735C9.36845 20.9659 9.63138 20.7169 9.95614 20.7169H11.6032C11.928 20.7169 12.1909 20.9659 12.1909 21.2735C12.1909 21.5808 11.928 21.8302 11.6032 21.8302Z" fill="#FD747F"/>
<path d="M24.4926 10.4904L17.0002 8.81435L10.4866 9.9198L5.59193 13.8493L6.40552 15.5741C11.827 16.3681 14.3115 12.6581 14.3115 12.6581C14.643 13.5096 14.7856 14.2155 14.8361 14.7594C14.9016 15.4659 15.6632 15.9275 16.3632 15.6755C18.897 14.7632 20.7638 12.6578 20.7638 12.6578C20.8786 13.4435 20.8327 14.1764 20.7421 14.7588C20.6353 15.4474 21.2312 16.0542 21.9634 15.995C25.7417 15.6886 26.1274 14.2845 26.1274 14.2845L24.4926 10.4904Z" fill="#57565B"/>
<path d="M29.525 16.5688C29.0291 16.5688 28.532 16.3983 28.1399 16.0536L24.5468 12.8949C23.8024 12.2403 22.8942 11.748 21.9211 11.4717L20.3579 11.0276C18.1614 10.4037 15.8392 10.4037 13.6424 11.0276L12.0792 11.4717C11.1061 11.748 10.1979 12.2403 9.45354 12.8949L5.86037 16.0536C5.03576 16.7784 3.74713 16.7328 2.98222 15.9521C2.217 15.1711 2.26505 13.9505 3.08935 13.226L6.68252 10.0674C7.88116 9.01352 9.34273 8.22147 10.909 7.77615L12.4722 7.33229C15.4345 6.49066 18.5661 6.49066 21.5284 7.33229L23.0913 7.77615C24.6579 8.22118 26.1194 9.01352 27.3181 10.0674L30.911 13.226C31.7356 13.9508 31.7833 15.1711 31.0181 15.9521C30.6168 16.3615 30.0717 16.5688 29.525 16.5688V16.5688Z" fill="#FD747F"/>
<path d="M23.2205 20.1463C23.5449 20.1463 23.8082 19.897 23.8082 19.5897V18.4439C23.8082 18.1366 23.5449 17.8873 23.2205 17.8873C22.896 17.8873 22.6328 18.1366 22.6328 18.4439V19.5897C22.6328 19.897 22.896 20.1463 23.2205 20.1463Z" fill="black"/>
<path d="M10.7795 20.1463C11.1043 20.1463 11.3672 19.897 11.3672 19.5897V18.4439C11.3672 18.1366 11.1043 17.8873 10.7795 17.8873C10.4551 17.8873 10.1918 18.1366 10.1918 18.4439V19.5897C10.1918 19.897 10.4551 20.1463 10.7795 20.1463Z" fill="black"/>
<path d="M18.4994 20.3235C18.2551 20.1211 17.8838 20.1446 17.6702 20.3762C17.5083 20.5516 17.264 20.6522 17.0002 20.6522C16.736 20.6522 16.4917 20.5516 16.3301 20.3762C16.1165 20.1446 15.7452 20.1211 15.5006 20.3235C15.2564 20.5258 15.2313 20.8775 15.4449 21.1089C15.83 21.526 16.3969 21.7655 17.0002 21.7655C17.6031 21.7655 18.17 21.526 18.5551 21.1089C18.7687 20.8775 18.7436 20.5258 18.4994 20.3235V20.3235Z" fill="black"/>
<path d="M3.86498 22.479C3.95589 22.479 4.0468 22.4747 4.1377 22.4686C5.36818 26.0827 8.38407 28.9862 12.2405 30.3195C11.2197 31.0063 9.80891 32.2683 9.04093 34.3256C8.68189 35.2852 8.49977 36.3341 8.49977 37.4434C8.49977 37.7507 8.76301 38 9.08746 38H24.9141C25.2388 38 25.5018 37.7507 25.5018 37.4434C25.5018 37.4292 25.5011 37.4152 25.5002 37.4013C25.4956 36.3237 25.3181 35.3041 24.9738 34.3679C24.9658 34.3395 24.9563 34.3117 24.9438 34.2853C24.173 32.2518 22.7739 31.002 21.7595 30.3195C25.6159 28.9862 28.6318 26.0827 29.8623 22.4686C29.9532 22.4747 30.0444 22.479 30.135 22.479C32.2663 22.479 34 20.8366 34 18.8182C34 17.4382 33.2008 16.2113 31.9529 15.5856C32.0943 15.2609 32.1619 14.9087 32.1479 14.5472C32.1218 13.8835 31.8243 13.2695 31.3104 12.8178L30.8635 12.425C30.88 11.5338 30.749 8.61604 28.7135 4.37659C28.3006 3.5164 27.6358 2.79944 26.7907 2.30397C26.2921 2.01144 25.7408 1.73747 25.1516 1.48901C22.7993 0.500977 20.0568 0 17.0002 0C16.0987 0 15.2083 0.045517 14.3528 0.135101C14.0302 0.168732 13.7975 0.443863 13.8334 0.749435C13.8689 1.05501 14.16 1.27534 14.482 1.24142C15.2946 1.15648 16.1419 1.11328 17.0002 1.11328C19.7859 1.11328 22.2848 1.54845 24.4326 2.40718C24.6576 3.10762 25.3126 5.31766 25.5189 7.9072C25.5253 7.9904 25.5314 8.07419 25.5373 8.15855C25.5018 8.13942 25.4653 8.12173 25.4295 8.10318C24.9334 7.84631 23.4712 7.30649 23.2655 7.24474C23.2639 7.24416 23.2618 7.24358 23.2603 7.24329C22.0782 6.90727 20.9068 6.55125 19.687 6.35614C19.6793 6.35498 19.6717 6.35353 19.664 6.35237C17.8985 6.07492 16.1015 6.07492 14.336 6.35237C14.3304 6.35324 14.3246 6.35411 14.3188 6.35527C13.0963 6.54807 11.9264 6.91423 10.74 7.24329C9.98154 7.45869 9.2806 7.76659 8.57476 8.10086C8.53742 8.12028 8.50008 8.13884 8.46304 8.15855C8.46335 8.15218 8.46396 8.14638 8.46426 8.14C8.51997 7.32707 8.62282 6.51704 8.76392 5.71339C8.98278 4.60736 9.21908 3.49611 9.56588 2.41269C9.56649 2.41095 9.5671 2.40921 9.56771 2.40747C10.4119 2.07059 11.3274 1.79488 12.2931 1.5873C12.6096 1.51917 12.808 1.22084 12.736 0.921066C12.6641 0.621292 12.3494 0.433426 12.0329 0.501556C10.8998 0.745087 9.8285 1.07733 8.84779 1.4893C8.25918 1.73747 7.70792 2.01144 7.20961 2.30368C6.3645 2.79944 5.69937 3.51611 5.28645 4.3763C4.03027 6.99309 3.51573 9.09933 3.30576 10.4057C3.19832 11.0728 3.12669 11.7498 3.13618 12.4253L2.6896 12.8178C2.17568 13.2695 1.87846 13.8835 1.85214 14.5472C1.83806 14.9087 1.90571 15.2609 2.04712 15.5859C0.799197 16.2116 0 17.4382 0 18.8182C0 20.8366 1.73399 22.479 3.86498 22.479V22.479ZM18.9469 30.9849C18.7412 31.8224 17.9463 32.4487 17.0002 32.4487C16.054 32.4487 15.2591 31.8224 15.0534 30.9849C15.0807 30.9884 15.1082 30.9907 15.1355 30.9942C16.3718 31.151 17.6286 31.1516 18.8651 30.9942C18.8921 30.9907 18.9196 30.9884 18.9469 30.9849ZM10.0223 35.0672H11.8049V36.8867H9.6926C9.733 36.2498 9.84319 35.6407 10.0223 35.0672ZM22.1951 36.8867V35.0672H23.9781C24.1568 35.6409 24.267 36.2498 24.3074 36.8867H22.1951ZM23.5226 33.9539H21.6074C21.2826 33.9539 21.0197 34.2032 21.0197 34.5106V36.8867H12.9806V34.5106C12.9806 34.2032 12.7174 33.9539 12.3929 33.9539H10.4774C11.4982 31.9697 13.212 31.0107 13.7452 30.7503C13.7752 30.757 13.8052 30.7628 13.8352 30.7695C13.9515 32.3275 15.3262 33.562 17.0002 33.562C18.6742 33.562 20.0488 32.3275 20.1648 30.7695C20.1948 30.7628 20.2251 30.7573 20.2548 30.7503C20.7898 31.0118 22.5024 31.9709 23.5226 33.9539V33.9539ZM20.0916 29.6414C18.073 30.1183 15.927 30.1163 13.9084 29.6411C9.60934 28.6252 6.21819 25.5428 5.10311 21.6362C4.70397 20.2379 4.61214 18.7553 4.82579 17.3162C4.82793 17.3008 4.84997 17.0999 4.86068 17.0984C5.57326 16.9958 6.08871 16.6122 6.60202 16.1611C7.03973 16.2139 7.47376 16.2423 7.89586 16.2423C11.0648 16.2423 13.0792 14.7834 14.0718 13.8085C14.1612 14.1537 14.2209 14.4877 14.2506 14.8081C14.3482 15.8593 15.5285 16.5717 16.5719 16.1959C18.114 15.6404 19.4082 14.6831 20.2352 13.963C20.223 14.1987 20.1982 14.437 20.1605 14.6776C20.0017 15.7028 20.9208 16.6375 22.0133 16.5493C24.5079 16.3473 25.6824 15.6758 26.2312 15.1351L27.7399 16.4615C28.1133 16.7984 28.6135 17.0219 29.1243 17.0958C29.1292 17.0967 29.1341 17.0979 29.1393 17.0987C29.1451 17.1329 29.1513 17.1671 29.1568 17.2016C29.3946 18.6765 29.3067 20.1956 28.8969 21.6362C27.7818 25.5428 24.3907 28.6255 20.0916 29.6414ZM15.7923 11.1804C17.2652 11.0282 18.7696 11.1572 20.189 11.5607C21.369 11.8962 22.6013 12.182 23.6111 12.8839C23.9254 13.1022 24.229 13.375 24.5226 13.6333L25.3649 14.3738C25.0178 14.7052 24.1182 15.2618 21.9132 15.4404C21.5606 15.4691 21.2728 15.167 21.3237 14.8397C21.4439 14.0645 21.4513 13.3049 21.346 12.5818C21.2777 12.1142 20.6353 11.9376 20.3139 12.3C20.2961 12.32 18.5177 14.3042 16.1541 15.1554C15.8208 15.2754 15.4523 15.0432 15.4213 14.7107C15.3555 14.0039 15.1679 13.2486 14.863 12.4656C14.6987 12.0434 14.0694 11.9802 13.8153 12.36C13.7966 12.3876 11.9148 15.129 7.89586 15.129C7.85637 15.129 7.81658 15.1287 7.77679 15.1282C7.77679 15.1282 9.55669 13.5638 9.557 13.5632C10.34 12.8749 11.216 12.298 12.2478 12.0049C13.4159 11.6729 14.5744 11.3065 15.7923 11.1804V11.1804ZM32.8246 18.8182C32.8246 20.2095 31.641 21.344 30.177 21.3654C30.5029 19.9515 30.5501 18.4747 30.3205 17.0442C30.319 17.0332 30.3174 17.0219 30.3156 17.0109C30.6636 16.9071 30.9856 16.7352 31.262 16.5035C32.2094 16.9146 32.8246 17.8076 32.8246 18.8182ZM26.1718 3.25026C26.8182 3.62947 27.3273 4.17828 27.6438 4.83727C29.0484 7.76282 29.4953 10.0297 29.6312 11.3416L27.7175 9.65916C27.4105 9.38896 27.0867 9.13586 26.7494 8.89987C26.7491 8.88596 26.7485 8.87233 26.7482 8.85841C26.6909 6.92612 26.3744 5.00397 25.8678 3.13284C25.862 3.11168 25.8562 3.08994 25.8507 3.06906C25.9603 3.12878 26.0671 3.18909 26.1718 3.25026V3.25026ZM6.35623 4.83727C6.67273 4.17828 7.18175 3.62947 7.82852 3.25026C7.93289 3.18909 8.04003 3.12849 8.1496 3.06906C8.14777 3.07544 8.14624 3.08211 8.1444 3.08849C7.77036 4.46588 7.50192 5.8714 7.35714 7.28735C7.30296 7.81413 7.26807 8.34236 7.25185 8.87146C7.25124 8.88074 7.25093 8.8903 7.25062 8.89987C6.91362 9.13586 6.58978 9.38896 6.28247 9.65916L4.3688 11.3416C4.5047 10.0297 4.9519 7.76253 6.35623 4.83727ZM3.4891 13.6339C3.4891 13.6339 7.08227 10.4753 7.08289 10.4747C8.25704 9.52029 9.58791 8.73288 11.0776 8.3096C12.4826 7.91039 13.8878 7.49551 15.3516 7.34331C15.3592 7.34244 15.3669 7.34186 15.3742 7.34099C16.4596 7.22966 17.5533 7.22995 18.6386 7.34244C18.6417 7.34273 18.6448 7.34302 18.6481 7.34331C20.3356 7.52016 22.0616 7.96547 23.6432 8.54907C24.8452 8.99236 25.9716 9.64351 26.918 10.4753C26.918 10.4753 30.5081 13.6313 30.5109 13.6339C31.0891 14.1424 31.1231 15.0267 30.5874 15.5735C30.0551 16.1165 29.1118 16.1487 28.5397 15.6457C27.342 14.5927 26.1439 13.54 24.9465 12.487C23.7206 11.4088 22.0938 10.9394 20.5269 10.4944C18.2389 9.84471 15.7611 9.84442 13.4734 10.4944C11.8652 10.9513 10.3133 11.3792 9.05348 12.487C9.05348 12.487 5.46154 15.6445 5.46062 15.6457C4.97302 16.0744 4.17566 16.1298 3.62715 15.7529C2.90417 15.2563 2.83101 14.2123 3.4891 13.6339V13.6339ZM2.73796 16.5035C3.01467 16.7355 3.33636 16.9074 3.68469 17.0109C3.68286 17.0219 3.68133 17.0329 3.67949 17.0442C3.45054 18.4709 3.49645 19.9492 3.82304 21.3654C2.35933 21.344 1.17538 20.2095 1.17538 18.8182C1.17538 17.8076 1.79062 16.9146 2.73796 16.5035Z" fill="black"/>
</svg>
